PathFileType	4	(X/Y/Z)	D:\Long Term Storage\D'Arcy Smith\Coord6.trc
DataRate	CameraRate	NumFrames	NumMarkers	Units	OrigDataRate	OrigDataStartFrame	OrigNumFrames
120.00	120.00	      60	4	mm	120.00	2432	      4863
Frame#	Time	M1			M2			M3			M4			
		X1	Y1	Z1	X2	Y2	Z2	X3	Y3	Z3	X4	Y4	Z4	

2432	20.258	1035.38892	345.10681	640.41644	1613.96680	327.56027	641.04291							
2433	20.267	1035.38867	346.58804	642.25922	1613.73535	326.27127	636.96033							
2434	20.275	1035.35083	348.24515	643.66467	1613.39746	325.02899	632.12573							
2435	20.283	1035.23254	349.43851	644.32037	1613.75049	324.36017	626.38745							
2436	20.292	1035.66064	350.82275	644.66321	1613.30103	323.27692	619.68542							
2437	20.300	1035.93201	351.62338	644.10229	1612.79883	322.28821	611.68512							
2438	20.308	1036.40283	352.26785	642.78369	1611.81458	320.51086	601.42499							
2439	20.317	1037.16492	352.55438	640.74817	1611.41333	320.04407	591.52374							
2440	20.325	1037.63342	352.32135	637.70313	1610.98010	319.02844	579.38550							
2441	20.333	1038.79968	351.90994	634.18958	1610.33716	316.27246	564.96594							
2442	20.342	1039.93982	350.79340	629.26251	1610.26074	315.73633	550.41394							
2443	20.350	1041.36133	349.31607	623.64844	1610.05310	315.24344	534.24695							
2444	20.358	1043.34827	346.57462	616.58514	1610.22144	315.70288	517.94574							
2445	20.367	1044.51965	344.70456	609.01788	1610.29712	315.67920	500.13611							
2446	20.375	1047.20325	341.37424	600.29565	1610.67651	316.51376	481.95218							
2447	20.383	1049.42151	338.11218	590.68854	1610.73413	317.55554	462.78745							
2448	20.392	1051.89978	335.53714	580.55176	1610.41113	320.18845	444.53653							
2449	20.400	1054.53955	332.59692	569.52643	1610.34009	322.88174	425.14188							
2450	20.408	1057.37695	329.18436	557.74768	1611.34729	326.90765	408.38965							
2451	20.417	1060.59766	326.73605	545.35388	1610.79590	331.09766	389.74814							
2452	20.425	1063.96423	324.33340	532.37366	1611.75696	336.47903	372.64514							
2453	20.433	1067.41345	322.49106	519.41803	1611.86243	342.34140	356.01385							
2454	20.442	1070.62195	321.34567	505.30008	1611.94043	348.31067	340.06531							
2455	20.450	1074.07446	320.21515	491.56787	1612.48755	355.08234	325.56268							
2456	20.458	1077.68250	319.74738	477.62598	1612.92603	362.24374	313.18628							
2457	20.467	1081.31360	319.76813	463.40335	1613.60486	369.28638	302.28119							
2458	20.475	1084.99243	320.20944	449.76373	1614.24976	376.08978	293.10248							
2459	20.483	1088.76917	321.06595	435.91190	1615.46521	382.79861	285.61102							
2460	20.492	1092.37146	323.27985	422.31067	1617.01758	388.74179	279.47290							
2461	20.500	1095.33008	325.33530	408.91132	1618.41943	394.24249	274.56683							
2462	20.508	1098.29639	328.14874	395.96811	1620.00940	399.23792	270.69351							
2463	20.517	1101.34326	331.32111	383.66312	1621.89307	403.57913	267.71671							
2464	20.525	1104.01611	334.71140	371.88458	1624.13452	407.36655	265.56979							
2465	20.533	1106.80249	338.97739	360.58838	1625.91565	410.03995	263.37128							
2466	20.542	1108.92603	342.73880	350.35681	1628.51489	412.45471	262.85669							
2467	20.550	1110.71179	346.93582	340.73444	1630.72058	414.35693	262.63931							
2468	20.558	1112.43201	351.04538	331.48840	1633.48511	415.55307	263.09622							
2469	20.567	1113.62500	355.29596	323.23416	1635.45630	416.18918	263.80371							
2470	20.575	1114.60083	359.29605	315.65356	1638.33948	416.43442	264.83307							
2471	20.583	1115.20801	363.06693	308.82220	1640.83252	416.00885	267.27917							
2472	20.592	1115.62378	366.83551	302.65726	1643.13904	414.91412	269.02704							
2473	20.600	1115.74939	370.07690	297.25516	1645.22986	413.39023	271.03812							
2474	20.608	1115.30530	373.05176	292.72183	1647.38831	411.31161	273.85944							
2475	20.617	1114.73706	375.64420	288.68179	1649.06458	408.90186	276.84210							
2476	20.625	1114.13074	377.62152	285.43729	1651.15002	405.62781	280.57687							
2477	20.633	1112.92517	379.11752	283.07587	1652.58228	402.37280	284.16125							
2478	20.642	1111.57166	379.95297	281.30426	1654.24207	398.40640	288.68427							
2479	20.650	1109.93030	380.27945	280.39215	1655.20032	394.16367	293.04800							
2480	20.658	1108.06091	380.11560	280.36426	1656.71423	389.24072	298.32578							
2481	20.667	1105.71704	379.15530	280.96124	1657.69751	384.28354	303.91418							
2482	20.675	1103.55542	377.57733	282.40860	1658.30774	378.89856	309.62729							
2483	20.683	1101.13306	375.42642	284.83746	1658.92468	373.39139	316.31888							
2484	20.692	1098.32935	372.82867	287.94925	1659.30408	367.67889	323.37384							
2485	20.700	1095.71423	369.39609	291.80115	1659.73633	361.80579	331.14938							
2486	20.708	1092.76904	365.60138	296.75037	1659.95203	355.86481	339.08264							
2487	20.717	1089.77649	361.25052	302.41901	1660.28271	350.15070	348.37643							
2488	20.725	1086.90430	356.69641	309.09402	1660.24756	344.32263	358.25885							
2489	20.733	1083.91235	351.71793	316.73080	1660.36487	338.60492	368.43872							
2490	20.742	1081.17175	346.73593	325.02896	1660.39990	333.27103	379.90384							
2491	20.750	1077.98022	341.55505	334.35672	1660.13916	327.79474	391.78760							
